<?xml version="1.0" encoding="UTF-8" standalone="no"?>
<!-- Created with Inkscape (http://www.inkscape.org/) -->

<svg
   xmlns:dc="http://purl.org/dc/elements/1.1/"
   xmlns:cc="http://creativecommons.org/ns#"
   xmlns:rdf="http://www.w3.org/1999/02/22-rdf-syntax-ns#"
   xmlns:svg="http://www.w3.org/2000/svg"
   xmlns="http://www.w3.org/2000/svg"
   version="1.1"
   width="744.09448"
   height="1052.3622"
   id="svg2">
  <defs
     id="defs4">
    <linearGradient
       id="linearGradient5277">
      <stop
         id="stop5279"
         style="stop-color:#000000;stop-opacity:1"
         offset="0" />
    </linearGradient>
  </defs>
  <metadata
     id="metadata7">
    <rdf:RDF>
      <cc:Work
         rdf:about="">
        <dc:format>image/svg+xml</dc:format>
        <dc:type
           rdf:resource="http://purl.org/dc/dcmitype/StillImage" />
        <dc:title></dc:title>
      </cc:Work>
    </rdf:RDF>
  </metadata>
  <g
     id="layer1">
    <path
       d="m 13.368982,108.10655 716.734308,0 c 0,0 -1.97448,395.70131 -1.97448,577.24843 0,181.54712 -163.9594,287.54428 -341.94794,286.14882 C 208.19233,970.10831 16.417216,861.76457 15.343457,681.83517 14.269698,501.90577 13.368982,108.10655 13.368982,108.10655 z"
       id="path2987"
       style="fill:none;stroke:#000000;stroke-width:18.45369148;stroke-linecap:butt;stroke-linejoin:miter;stroke-miterlimit:4;stroke-opacity:1;stroke-dasharray:none" />
  </g>
  <g
     id="layer2">
    <rect
       width="189.68909"
       height="416.84213"
       x="283.2186"
       y="347.44858"
       id="rect3765"
       style="fill:#000000;fill-opacity:1;stroke:none" />
    <path
       d="m 295.07926,360.98678 c 0,0 22.15361,18.7218 33.97937,24.87173 16.45086,8.55516 33.5493,15.7401 50.80725,16.40476 15.37331,0.59207 31.03939,-3.16884 45.62944,-11.11291 13.14267,-7.15598 36.56827,-32.28033 36.56827,-32.28033"
       id="path3779"
       style="fill:none;stroke:#fffe00;stroke-width:11.58710957;stroke-linecap:square;stroke-linejoin:miter;stroke-miterlimit:4;stroke-opacity:1;stroke-dasharray:none" />
    <path
       d="m 378.74342,411.10561 2.51316,338.22743"
       id="path3781"
       style="fill:none;stroke:#ffff00;stroke-width:13.20114422;stroke-linecap:square;stroke-linejoin:miter;stroke-miterlimit:4;stroke-opacity:1;stroke-dasharray:none" />
    <path
       d="m 286.68451,570.47526 179.48813,2.34527"
       id="path3783"
       style="fill:none;stroke:#ffff00;stroke-width:12;stroke-linecap:butt;stroke-linejoin:miter;stroke-miterlimit:4;stroke-opacity:1;stroke-dasharray:none" />
    <path
       d="m 472.4026,336.84198 c 4.7146,0 7.99843,1.93481 12.62856,3.03046 4.63013,1.09565 10.35257,2.53147 15.15395,3.53553 4.80138,1.00406 9.00754,1.76619 13.63871,2.52538 4.63117,0.75919 9.61788,2.14591 14.14379,2.02031 4.52591,-0.1256 7.32578,-0.15607 12.12348,-1.01016 4.7977,-0.8541 11.5311,-3.02097 16.66918,-4.04061 5.13808,-1.01964 9.84719,-2.52837 14.64886,-3.53553 4.80167,-1.00716 9.4292,-2.52538 14.14379,-2.52538 l 0.50508,23.39176 0,12.78515 0,12.78516 0,12.78516 0,12.78515 0,12.78516 0,12.78516 0,12.78516 0,12.78515 0,12.78516 0,12.78516 0,12.78515 0,12.78516 0,12.78516 0,12.78515 0,12.78516 0,12.78516 0,12.78515 0,12.78516 0,12.78516 0,12.78515 0,12.78516 0,12.78516 0,12.78516 0,12.78515 0,12.78516 0,12.78516 0,12.78515 0,12.78516 0,12.78516 0,12.78515 0,12.78516 -9.61519,-2.91908 -7.72487,-2.77116 -6.98521,-3.79925 -9.43136,-6.7251 -7.20414,-6.19399 -5.46769,-8.15433 -5.11285,-10.46242 -3.0133,-12.08225 -1.01028,-256.6866 c -1.32796,-3.83073 -2.65593,-7.66147 -3.98389,-11.4922 -1.8226,-2.78051 -3.6452,-5.56102 -5.46779,-8.34152 -2.04225,-2.52121 -4.0845,-5.04242 -6.12675,-7.56362 -1.78571,-1.66667 -3.57143,-3.33334 -5.35714,-5 -1.90476,-1.66667 -3.80952,-3.33333 -5.71428,-5 -3.13212,-1.11384 -6.26424,-2.22769 -9.39636,-3.34153 -3.58987,-1.09264 -7.17974,-2.18527 -10.76961,-3.27791 -3.58987,-0.73549 -7.17974,-1.47099 -10.76961,-2.20648 z"
       id="path3785"
       style="fill:none;stroke:#000000;stroke-width:0.98676395px;stroke-linecap:butt;stroke-linejoin:miter;stroke-opacity:1" />
    <path
       d="m 283.2186,335.53707 c -4.7146,0 -7.99843,1.91732 -12.62856,3.00306 -4.63013,1.08574 -10.35257,2.5086 -15.15395,3.50358 -4.80138,0.99497 -9.00754,1.75022 -13.63871,2.50254 -4.63117,0.75233 -9.61788,2.12651 -14.14379,2.00205 -4.52591,-0.12446 -7.32578,-0.15467 -12.12348,-1.00103 -4.7977,-0.84638 -11.5311,-2.99367 -16.66918,-4.00407 -5.13808,-1.01043 -9.84719,-2.50552 -14.64886,-3.50358 -4.80167,-0.99806 -9.4292,-2.50255 -14.14379,-2.50255 l -0.50508,23.18029 0,12.66957 0,12.66957 0,12.66959 0,12.66956 0,12.66958 0,12.66958 0,12.66958 0,12.66956 0,12.66959 0,12.66957 0,12.66957 0,12.66958 0,12.66957 0,12.66956 0,12.66959 0,12.66957 0,12.66957 0,12.66958 0,12.66958 0,12.66956 0,12.66959 0,12.66957 0,12.66958 0,12.66957 0,12.66958 0,12.66957 0,12.66958 0,12.66957 0,12.66958 0,12.66957 0,12.66958 9.61519,-2.89269 7.72487,-2.74612 6.98521,-3.76489 9.43136,-6.6643 7.20414,-6.138 5.46769,-8.08061 5.11285,-10.36784 3.0133,-11.97302 1.01028,-254.36607 c 1.32796,-3.7961 2.65593,-7.5922 3.98389,-11.38831 1.8226,-2.75538 3.6452,-5.51074 5.46779,-8.26611 2.04225,-2.49842 4.0845,-4.99684 6.12675,-7.49523 1.78571,-1.65161 3.57143,-3.30322 5.35714,-4.95481 1.90476,-1.6516 3.80952,-3.30319 5.71428,-4.9548 3.13212,-1.10376 6.26424,-2.20754 9.39636,-3.31132 3.58987,-1.08276 7.17974,-2.16551 10.76961,-3.24828 3.58987,-0.72884 7.17974,-1.45769 10.76961,-2.18653 z"
       id="path3787"
       style="fill:none;stroke:#000000;stroke-width:0.98229343px;stroke-linecap:butt;stroke-linejoin:miter;stroke-opacity:1" />
    <path
       d="m 170.94919,543.27183 0,-206.07112 2.66639,0 c 1.46651,0 11.83633,2.10714 23.04403,4.68253 26.48073,6.08494 33.64785,6.48232 53.22202,2.95086 8.15812,-1.47184 19.28558,-3.79147 24.72771,-5.15473 5.44212,-1.36326 10.56743,-2.47866 11.38958,-2.47866 1.25343,0 1.49482,4.8798 1.49482,30.22087 l 0,30.22087 -5.56237,1.12067 c -3.05929,0.61636 -10.26965,2.54449 -16.02303,4.28472 -8.46246,2.55964 -11.51581,4.04998 -15.98421,7.80187 -9.78385,8.21501 -16.92586,17.31838 -20.76259,26.46447 l -2.28517,5.44747 -0.4626,126.77415 c -0.40691,111.5121 -0.66661,127.62541 -2.15724,133.84521 -1.85783,7.75201 -5.75408,15.83578 -10.83039,22.47043 -3.53148,4.61559 -15.70074,13.68551 -23.35507,17.40687 -5.27203,2.56314 -15.51508,6.08464 -17.69851,6.08464 -1.18685,0 -1.42337,-34.24276 -1.42337,-206.07112 z"
       id="path3049"
       style="fill:#000000;fill-opacity:1;stroke:#000000;stroke-width:3.10359025;stroke-linecap:round;stroke-linejoin:miter;stroke-miterlimit:4;stroke-opacity:1;stroke-dasharray:none" />
    <path
       d="m 576.02036,752.26045 c -10.10296,-3.42224 -23.06012,-11.79749 -29.73186,-19.21808 -4.85388,-5.39868 -10.13876,-15.50676 -12.26827,-23.4648 -1.02907,-3.84566 -1.47134,-33.0782 -2.03267,-134.35029 -0.68142,-122.94034 -0.81264,-129.71395 -2.61503,-134.99101 -2.67872,-7.84277 -7.98464,-15.46286 -16.88637,-24.25139 -7.37485,-7.28108 -8.08489,-7.7137 -17.78308,-10.83527 -5.55584,-1.78826 -12.42855,-3.74161 -15.27268,-4.34078 l -5.17116,-1.08939 -0.49087,-30.50175 c -0.26998,-16.77596 -0.35953,-30.66107 -0.19899,-30.8558 0.16053,-0.19473 5.89043,1.03195 12.73309,2.72597 37.24749,9.22121 43.6441,9.4206 73.10611,2.27877 11.69792,-2.83567 22.03069,-5.15577 22.96173,-5.15577 0.93102,0 1.93935,1.02278 2.24071,2.27285 0.30137,1.25006 0.42367,95.06563 0.27179,208.47904 l -0.27616,206.20619 -8.58629,-2.90849 z"
       id="path3051"
       style="fill:#000000;fill-opacity:1;stroke:#000000;stroke-width:3.03045774;stroke-linecap:round;stroke-linejoin:miter;stroke-miterlimit:4;stroke-opacity:1;stroke-dasharray:none" />
    <path
       d="m 173.6298,734.03207 c -0.36317,-6.75424 -0.66031,-98.35849 -0.66031,-203.56498 l 0,-191.28456 2.27284,0.51178 c 14.67852,3.30525 36.14233,7.65839 42.17387,8.55343 9.87517,1.4654 22.40584,0.16479 43.11906,-4.4755 8.69359,-1.94759 16.6399,-3.54107 17.65847,-3.54107 1.75079,0 1.85193,1.51312 1.85193,27.70752 l 0,27.70751 -5.80838,1.62628 c -11.77426,3.29665 -22.05323,6.85905 -25.05455,8.68317 -3.98823,2.42394 -14.29068,13.22814 -18.50821,19.40959 -1.81136,2.65482 -4.37598,7.27493 -5.69917,10.26689 l -2.40581,5.43995 -0.9386,129.63923 c -0.8547,118.05012 -1.09365,130.1359 -2.67302,135.19508 -4.07512,13.05382 -11.19609,22.45513 -23.16493,30.583 -5.69728,3.86896 -17.90957,9.73443 -20.39542,9.79578 -0.70875,0.0175 -1.34518,-4.39389 -1.76777,-12.2531 l 0,0 z"
       id="path3821"
       style="fill:none;stroke:none" />
    <path
       d="m 283.2186,335.53707 c 5.32973,-1.06821 5.35616,-1.12626 12.45365,-3.20463 3.21148,-0.94041 0.0433,0.11576 9.4232,-3.45716 8.41304,-3.20462 8.41304,-3.20462 8.41304,-3.20462 7.0372,-3.69079 0,0 8.41304,-3.70971 3.06188,-1.35012 8.91812,-6.23508 8.91812,-6.23508 7.65542,-5.73001 0,0 7.65542,-5.73001 0,0 0,0 6.1402,-6.99269 4.21769,-4.80328 3.08331,-5.92449 5.88766,-11.28585 l 7.07107,18.18274 26.26397,-12.12183 2.0203,-77.78174 -28.28427,-17.1726 c 0,0 81.51465,-1.79191 83.84266,-1.01015 3.66892,1.23205 11.46423,3.15575 17.80394,5.55584 19.47066,7.37121 10.1039,3.39372 14.56953,5.43854 4.7122,2.15773 10.05293,4.15791 13.4622,7.69344 3.40927,3.53553 9.4216,9.05548 9.4216,9.05548 0,0 5.29607,6.99718 6.07596,7.96928 2.33603,2.9118 4.244,6.54021 5.85089,10.22398 2.67704,6.13706 2.6962,6.48933 4.28418,11.13706 5.17703,15.15228 3.31383,10.60788 5.17703,15.15228 5.17703,12.62691 2.15555,7.97662 4.67195,11.8693 l -86.32743,-2.27284 -3.53553,0.75761 c -2.65166,1.76777 0,0 -2.65166,1.76777 l -2.77792,2.77792 c 0,0 0,0 -1.13642,3.78807 1.09414,4.18573 -0.40899,0.12887 1.09414,4.18573 0,0 -1.07143,-1.07143 1.62985,3.29287 0,0 2.45561,3.98096 3.41556,4.90001 0.95996,0.91905 2.09848,2.73097 3.05843,3.65002 0.95995,0.91905 1.74133,2.55239 2.70128,3.47145 0.95995,0.91905 2.09847,2.55238 3.05842,3.47143 0.95995,0.91905 1.76404,2.45241 2.72399,3.37146 0.95995,0.91905 2.99133,3.44525 3.95128,4.3643 0.95995,0.91905 -0.95995,-0.91905 0,0 0.95995,0.91905 2.27704,2.19525 3.23699,3.1143 0.95995,0.91905 2.12118,1.91669 3.08113,2.83574 0.95995,0.91906 -1.12728,-0.70385 0,0 4.12986,2.57859 2.92903,2.00921 4.12986,2.57859 4.30842,2.04287 3.03664,1.65718 4.30842,2.04287 5.55842,1.68572 4.27816,1.32922 5.55842,1.68572 4.12985,1.15002 3.1699,0.23097 4.12985,1.15002 l 0.50508,10.6066 -189.68908,0 z"
       id="path5283"
       style="fill:none;stroke:#000000;stroke-width:1px;stroke-linecap:butt;stroke-linejoin:miter;stroke-opacity:1" />
    <path
       d="m 283.92784,341.744 c 0,-3.21634 0.46362,-5.20379 1.26269,-5.41287 7.70524,-2.01614 28.79713,-9.54738 34.15752,-12.19656 12.57292,-6.2137 26.51808,-18.48677 29.7564,-26.18848 1.46346,-3.48055 1.70675,-3.16299 5.46647,7.13514 l 2.27706,6.23701 4.19857,-1.82933 c 2.30921,-1.00614 8.57799,-3.87565 13.93061,-6.37669 l 9.73204,-4.54736 0.66813,-25.11414 c 0.36747,-13.81277 0.76103,-31.70168 0.87456,-39.75312 l 0.20643,-14.63897 -12.54719,-7.58438 -12.54719,-7.58438 39.38786,-0.80635 39.38785,-0.80635 15.53296,5.18739 c 19.92878,6.65543 27.19875,10.42588 35.34369,18.33041 10.96171,10.63818 15.23013,18.03808 23.11407,40.0714 l 6.99538,19.55009 -5.20933,-0.57633 c -5.517,-0.61037 -76.18997,-2.31308 -80.43438,-1.9379 -3.10889,0.27482 -7.14901,3.20881 -9.06411,6.58251 -2.3673,4.17028 2.6e-4,9.62442 9.07508,20.90632 14.18393,17.63358 20.84416,23.12775 31.27244,25.79735 4.5062,1.15357 4.54836,1.20483 4.85357,5.90087 l 0.30788,4.73718 -93.99953,0 -93.99953,0 0,-5.08246 z"
       id="path5285"
       style="fill:#000000;fill-opacity:1;fill-rule:nonzero;stroke:#000000;stroke-width:3.06076217;stroke-linecap:round;stroke-linejoin:miter;stroke-miterlimit:4;stroke-opacity:1;stroke-dasharray:none" />
    <path
       d=""
       id="path5289"
       style="fill:#000000;fill-opacity:1;fill-rule:nonzero;stroke:#000000;stroke-width:0.54107141;stroke-linecap:round;stroke-linejoin:miter;stroke-miterlimit:4;stroke-opacity:1;stroke-dasharray:none" />
    <path
       d="m 313.738,368.37989 c -0.6875,-0.53877 -3.35588,-2.64418 -5.92974,-4.67868 l -4.67974,-3.69908 -0.004,-15.53572 -0.004,-15.53571 4.5941,-1.68227 c 2.52675,-0.92525 5.47802,-2.07835 6.55838,-2.56244 1.08035,-0.48409 2.53945,-1.10234 3.24243,-1.37389 3.06178,-1.18272 8.22563,-4.27346 12.63688,-7.56362 5.73967,-4.28096 8.95818,-7.13044 12.30415,-10.89338 3.51939,-3.95796 4.67765,-5.74866 5.91111,-9.13869 0.35735,-0.98214 0.99298,-2.5076 1.41252,-3.3899 l 0.76279,-1.60419 1.72632,4.37205 c 0.94947,2.40462 2.56025,6.53769 3.5795,9.1846 1.01925,2.6469 1.93927,4.84124 2.04449,4.87632 0.17458,0.0582 24.9605,-11.26844 25.25902,-11.54283 0.27017,-0.24832 1.38437,-46.29145 1.79902,-74.34255 l 0.0494,-3.33936 -14.34224,-8.6941 c -7.88824,-4.78176 -14.31924,-8.71711 -14.29112,-8.74523 0.0281,-0.0281 10.89878,-0.25651 24.15702,-0.50753 13.25824,-0.25103 28.44517,-0.53946 33.74875,-0.64097 5.30357,-0.10152 13.54017,-0.18168 18.30357,-0.17815 l 8.66071,0.006 2.94643,0.94805 2.94643,0.94806 0.045,40.65501 0.045,40.65501 -6.0637,0 c -5.87201,0 -6.09922,0.0129 -7.18788,0.40867 -2.76235,1.00417 -5.84119,3.90288 -6.63772,6.24935 -1.18249,3.48347 1.24754,8.33366 9.12859,18.22007 1.34527,1.68759 3.17151,3.91358 4.0583,4.94665 0.88679,1.03307 2.21455,2.5928 2.95057,3.46607 0.73602,0.87327 1.88111,2.16908 2.54464,2.87958 l 1.20642,1.29183 0,21.87709 0,21.87708 -1.98824,1.8918 -1.98825,1.89181 -64.12782,-0.009 -64.12783,-0.009 -1.25,-0.9796 z m 37.15387,-74.62378 c -0.16962,-0.44416 -0.37339,-0.80755 -0.45282,-0.80755 -0.11928,0 -0.71891,1.26003 -0.71891,1.51069 0,0.0802 1.29183,0.21314 1.40971,0.14507 0.0387,-0.0224 -0.0684,-0.40406 -0.23798,-0.84821 l 0,0 z"
       id="path5291"
       style="fill:#000000;fill-opacity:1;fill-rule:nonzero;stroke:#000000;stroke-width:0.54107141;stroke-linecap:round;stroke-linejoin:miter;stroke-miterlimit:4;stroke-opacity:1;stroke-dasharray:none" />
    <path
       d="m 308.87193,364.77642 -5.75893,-4.57325 0,-15.73262 0,-15.73262 1.65179,-0.59249 c 4.20487,-1.50827 10.5902,-4.04983 13.61607,-5.41963 4.33692,-1.96329 9.81921,-5.5311 15.48879,-10.0799 3.19346,-2.56218 5.66665,-4.86224 8.02057,-7.45913 3.77891,-4.16896 4.7716,-5.71116 6.66899,-10.36063 0.56054,-1.37358 1.24484,-2.94054 1.52067,-3.48215 0.48617,-0.95461 0.50692,-0.97107 0.6783,-0.5383 0.0972,0.24553 1.57829,4.02232 3.29125,8.39286 3.48651,8.8957 3.79829,9.64285 4.02392,9.64285 0.29847,0 15.96896,-7.09371 22.48753,-10.17965 l 2.3586,-1.11658 0.0956,-0.73581 c 0.27815,-2.14193 1.5377,-55.50896 1.7327,-73.41439 l 0.0369,-3.39285 -4.63048,-2.80927 c -2.54677,-1.54509 -9.07503,-5.52277 -14.50725,-8.83928 l -9.87676,-6.03003 10.05533,-0.21134 c 33.91825,-0.71291 49.51467,-0.95117 62.01962,-0.94745 l 13.92858,0.004 2.67857,0.85404 2.67857,0.85403 0.045,40.82711 0.045,40.82711 -6.29503,0.0569 -6.29502,0.0569 -1.19151,0.5645 c -1.57312,0.74529 -2.89699,1.74131 -4.13963,3.11447 -2.47203,2.73168 -2.66065,4.96717 -0.75937,8.9997 2.01367,4.27089 7.62007,11.73245 16.06471,21.38052 l 2.61508,2.98776 0,22.02971 0,22.02971 -1.83035,1.81065 -1.83036,1.81065 -64.46429,-0.0115 -64.46428,-0.0115 -5.75893,-4.57325 0,2e-5 z m 41.91964,-70.65255 c 0,-0.13928 -0.0496,-0.38241 -0.11014,-0.54027 -0.0852,-0.22215 -0.16596,-0.24069 -0.35714,-0.082 -0.37938,0.31486 -0.30885,0.87555 0.11014,0.87555 0.19643,0 0.35714,-0.11397 0.35714,-0.25326 z"
       id="path5293"
       style="fill:#000000;fill-opacity:1;fill-rule:nonzero;stroke:#000000;stroke-width:0.54107141;stroke-linecap:round;stroke-linejoin:miter;stroke-miterlimit:4;stroke-opacity:1;stroke-dasharray:none" />
    <path
       d="m 308.76102,364.89739 -5.64802,-4.47973 6.8e-4,-15.92205 6.9e-4,-15.92205 3.97253,-1.49367 c 4.86628,-1.82973 10.75429,-4.26557 12.87066,-5.32453 4.18656,-2.09484 11.03059,-6.81758 15.83401,-10.92632 1.93683,-1.65671 5.32858,-5.02531 7.03565,-6.98763 2.82935,-3.2524 3.63335,-4.58717 5.88481,-9.76975 1.51173,-3.47979 1.76219,-3.92181 2.02986,-3.58236 0.0985,0.12491 0.51996,1.11104 0.93658,2.1914 2.18279,5.6603 6.10184,15.41018 6.29838,15.66922 0.20397,0.26883 0.69305,0.0882 5.13615,-1.89703 8.1763,-3.65325 19.46409,-8.89526 19.58873,-9.09694 0.16573,-0.26815 0.33824,-5.11655 0.75724,-21.28239 0.44857,-17.30662 0.85369,-36.30205 1.01507,-47.59465 l 0.12129,-8.48751 -0.37411,-0.17321 c -0.90469,-0.41885 -28.75107,-17.49725 -28.69012,-17.59586 0.0374,-0.0605 3.22508,-0.16572 7.08384,-0.23395 3.85875,-0.0682 15.05163,-0.28113 24.87306,-0.47312 12.14719,-0.23746 23.79549,-0.34516 36.42857,-0.33683 l 18.57143,0.0122 2.32143,0.75034 2.32143,0.75033 0.045,41.02146 0.045,41.02146 -6.04936,0 c -4.98903,0 -6.18632,0.0482 -6.83074,0.27493 -1.36798,0.48134 -3.1628,1.67238 -4.4305,2.94008 -3.62928,3.62927 -3.25994,6.72108 1.6851,14.10642 2.33733,3.49077 6.80958,9.1599 11.76274,14.91071 l 3.84507,4.46429 0.008,22.25045 0.008,22.25045 -1.74107,1.72042 -1.74107,1.72043 -64.66449,0.002 -64.66449,0.002 -5.64801,-4.47974 z M 350.613,293.9307 c 0,-0.14732 -0.0804,-0.26786 -0.17857,-0.26786 -0.0982,0 -0.17857,0.12054 -0.17857,0.26786 0,0.14732 0.0804,0.26786 0.17857,0.26786 0.0982,0 0.17857,-0.12054 0.17857,-0.26786 z"
       id="path5295"
       style="fill:#000000;fill-opacity:1;fill-rule:nonzero;stroke:#000000;stroke-width:0.54107141;stroke-linecap:round;stroke-linejoin:miter;stroke-miterlimit:4;stroke-opacity:1;stroke-dasharray:none" />
    <path
       d="m 223.84666,371.65103 0,-26.29753 2.09821,0.14892 c 1.15402,0.0819 3.58625,0.1079 5.40495,0.0578 2.96776,-0.0818 3.80983,-0.18293 8.21429,-0.98643 2.69915,-0.49241 5.67094,-1.02277 6.60398,-1.17858 4.78055,-0.79833 12.45413,-2.4202 20.78108,-4.39224 4.13503,-0.97929 5.103,-1.24543 8.6832,-2.38748 2.66285,-0.84942 4.58013,-1.26687 6.60714,-1.43858 2.50718,-0.21238 5.9725,-1.15519 13.27965,-3.61302 5.82363,-1.95883 7.32516,-2.52696 7.43442,-2.81292 0.0753,-0.19709 0.44768,-0.46906 0.8275,-0.60437 2.15063,-0.7662 10.92847,-4.27267 13.36915,-5.34056 4.09449,-1.79149 7.30366,-3.68228 12.14286,-7.15437 4.08317,-2.92965 6.62449,-5.09393 10.28124,-8.75589 5.20591,-5.21332 5.97106,-6.30865 8.99438,-12.87576 1.73686,-3.77273 1.77063,-3.83213 2.10546,-3.70364 0.14644,0.0562 1.16115,2.36079 2.2726,5.16151 2.84615,7.17192 5.0369,12.53479 5.19209,12.71003 0.14481,0.16352 2.8255,-0.9284 7.09173,-2.88866 l 2.72321,-1.25127 0,45.34316 c 0,37.14198 -0.0421,45.34316 -0.23271,45.34316 -0.418,0 -5.69345,-1.387 -8.12497,-2.13618 -7.7238,-2.3798 -20.70471,-8.02812 -28.84534,-12.55135 -3.14944,-1.74994 -9.93422,-6.33319 -14.5099,-9.80172 -0.53578,-0.40614 -1.10784,-0.68932 -1.39251,-0.68932 -0.64718,0 -11.8402,-8.82418 -11.92648,-9.40241 -0.0373,-0.25031 -1.53336,-1.60619 -4.28537,-3.88393 -2.3254,-1.92466 -4.26851,-3.49938 -4.31802,-3.49938 -0.0715,0 -4.24641,4.98595 -5.26494,6.28768 -0.18683,0.23877 -0.21092,0.77705 -0.11026,2.46358 l 0.1288,2.15805 3.41406,2.81927 c 11.92596,9.84822 23.00247,18.10738 30.23592,22.54532 2.58634,1.58679 15.32223,7.9556 17.55315,8.77777 0.14732,0.0543 -25.98884,0.10505 -58.08036,0.11281 l -58.34821,0.0141 0,-26.29753 z m 42.80878,-31.66751 c -0.0593,-0.0593 -0.21336,-0.0657 -0.34227,-0.0141 -0.14245,0.057 -0.10013,0.0993 0.10789,0.10788 0.18825,0.008 0.29371,-0.0344 0.23438,-0.0938 l 0,-10e-6 z m 0.71428,-0.17857 c -0.0593,-0.0593 -0.21335,-0.0657 -0.34226,-0.0141 -0.14245,0.057 -0.10014,0.0993 0.10789,0.10789 0.18824,0.008 0.29371,-0.0344 0.23437,-0.0938 l 0,-10e-6 z m 0.80729,-0.18894 c -0.12276,-0.0495 -0.32366,-0.0495 -0.44642,0 -0.12277,0.0495 -0.0223,0.0901 0.22321,0.0901 0.24554,0 0.34598,-0.0405 0.22321,-0.0901 z m 7.85715,-1.76675 c 3.70759,-0.87219 6.74107,-1.66016 6.74107,-1.75104 0,-0.2153 -2.12741,-0.0167 -3.68149,0.34377 -0.66029,0.15313 -2.32494,0.63874 -3.69922,1.07913 -1.37428,0.4404 -3.5102,1.07922 -4.74649,1.4196 -3.35197,0.92289 -2.08701,0.66655 5.38613,-1.09146 l 0,0 z"
       id="path5297"
       style="fill:#000000;fill-opacity:1;fill-rule:nonzero;stroke:#000000;stroke-width:0.54107141;stroke-linecap:round;stroke-linejoin:miter;stroke-miterlimit:4;stroke-opacity:1;stroke-dasharray:none" />
    <path
       d="m 223.84666,371.56365 0,-26.38491 2.27678,0.14391 c 3.29763,0.20844 7.53403,0.008 10.82204,-0.51097 7.96899,-1.25881 15.31081,-2.68319 24.40118,-4.73408 7.30073,-1.64713 9.34833,-2.16512 14.64285,-3.70431 3.07318,-0.89342 3.66412,-1.01952 7.23215,-1.54327 2.34227,-0.34382 5.39313,-1.18828 11.07143,-3.06449 5.94196,-1.96334 8.29608,-2.84873 8.68541,-3.26663 0.17127,-0.18384 1.70229,-0.87603 3.40228,-1.53821 9.95522,-3.87776 13.8375,-5.6321 17.51298,-7.91383 6.19119,-3.84348 10.29911,-7.11773 15.58126,-12.4192 5.4437,-5.4636 5.55003,-5.61868 9.53209,-13.90232 0.74531,-1.55042 1.36983,-2.63393 1.51817,-2.63393 0.35148,0 0.97806,1.39471 4.25187,9.46429 1.57389,3.87946 2.98487,7.35491 3.13551,7.72321 0.15064,0.36831 0.36214,0.6696 0.47001,0.66956 0.3397,-1.6e-4 1.86262,-0.62599 5.77649,-2.37381 l 3.79464,-1.69458 0,45.51638 c 0,25.03401 -0.0603,45.51628 -0.13393,45.51615 -0.89913,-0.002 -8.98863,-2.31561 -12.23096,-3.49875 -8.81828,-3.21784 -21.50308,-9.07635 -27.01011,-12.47471 -2.53513,-1.56442 -7.41106,-4.87826 -10.32959,-7.02033 -1.26164,-0.92599 -2.70807,-1.86732 -3.21429,-2.09186 -1.64136,-0.72804 -9.97041,-7.25106 -12.34898,-9.67128 -0.78571,-0.79948 -1.99107,-1.93068 -2.67857,-2.51378 -2.09875,-1.78004 -5.51548,-4.51477 -5.64069,-4.51477 -0.1194,0 -4.21382,4.80262 -4.95777,5.8153 -0.38222,0.52028 -0.39604,0.65016 -0.27844,2.61718 l 0.12374,2.06974 0.73372,0.60901 c 13.26683,11.01177 27.61117,21.70462 33.81684,25.20843 2.45112,1.38393 9.56383,4.9903 13.0776,6.63074 1.81697,0.84827 3.37991,1.61627 3.47322,1.70667 0.10332,0.1001 -22.63642,0.16436 -58.16965,0.16436 l -58.33928,0 0,-26.38491 z m 55.26785,-34.67869 c 0.6875,-0.183 1.05438,-0.33999 0.81529,-0.34886 -0.53318,-0.0198 -2.53412,0.51103 -2.77957,0.73736 -0.19202,0.17705 -0.0687,0.15267 1.96428,-0.3885 z"
       id="path5299"
       style="fill:#000000;fill-opacity:1;fill-rule:nonzero;stroke:#000000;stroke-width:0.54107141;stroke-linecap:round;stroke-linejoin:miter;stroke-miterlimit:4;stroke-opacity:1;stroke-dasharray:none" />
    <path
       d="m 355.86064,287.79027 7.60401,18.10846"
       id="path5301"
       style="fill:#ffff00;fill-opacity:1;stroke:#ffff00;stroke-width:12.25788021;stroke-linecap:butt;stroke-linejoin:miter;stroke-miterlimit:4;stroke-opacity:1;stroke-dasharray:none" />
    <path
       d="m 354.20415,206.20112 26.22212,16.334 -1.70843,71.11645"
       id="path5305"
       style="fill:none;stroke:#ffff00;stroke-width:9.10685539;stroke-linecap:square;stroke-linejoin:miter;stroke-miterlimit:4;stroke-opacity:1;stroke-dasharray:none" />
    <path
       d="m 374.78684,295.72488 -8.32368,3.27459"
       id="path5307"
       style="fill:none;stroke:#ffff00;stroke-width:10;stroke-linecap:square;stroke-linejoin:miter;stroke-miterlimit:4;stroke-opacity:1;stroke-dasharray:none" />
    <path
       d="m 361.63461,285.40386 -2.27284,-3.53553 -43.18402,-0.25254 -3.53554,-24.74874 -7.57614,0 5.55584,-15.9099 0.50507,-17.42513 c 0,0 0.73617,-2.73735 1.89868,-3.92146 3.14868,-3.20717 3.14868,-3.20717 3.14868,-3.20717 0,0 0,0 2.79154,-2.67145 0,0 2.57609,-1.53587 4.04154,-2.31432 l 3.6844,-1.95717 c 2.48599,-1.32057 4.04153,-1.60003 4.04153,-1.60003 l 8.32727,0.007 8.68439,0.007 27.7792,17.1726 -1.26269,65.53364 -8.83884,3.78808 z"
       id="path5309"
       style="fill:#ffc7ff;fill-opacity:1;stroke:none" />
    <path
       d="m 349.26024,203.96008 -16.90793,-0.014"
       id="path5311"
       style="fill:none;stroke:#ffff00;stroke-width:7.97557211;stroke-linecap:square;stroke-linejoin:miter;stroke-miterlimit:4;stroke-opacity:1;stroke-dasharray:none" />
    <rect
       width="0.57087082"
       height="0.6640166"
       x="417.54437"
       y="-5.976243"
       transform="matrix(0.84415377,0.53610112,0.00763822,0.99997083,0,0)"
       id="rect5318"
       style="fill:#ffc7ff;fill-opacity:1;fill-rule:nonzero;stroke:#000000;stroke-width:6.5012989;stroke-linecap:square;stroke-linejoin:miter;stroke-miterlimit:4;stroke-opacity:1;stroke-dasharray:none" />
    <rect
       width="0.57087082"
       height="0.6640166"
       x="407.02267"
       y="-0.33539096"
       transform="matrix(0.84415377,0.53610112,0.00763822,0.99997083,0,0)"
       id="rect5320"
       style="fill:#ffc7ff;fill-opacity:1;fill-rule:nonzero;stroke:#000000;stroke-width:6.5012989;stroke-linecap:square;stroke-linejoin:miter;stroke-miterlimit:4;stroke-opacity:1;stroke-dasharray:none" />
    <rect
       width="0.57087082"
       height="0.6640166"
       x="396.5033"
       y="5.0516844"
       transform="matrix(0.84415377,0.53610112,0.00763822,0.99997083,0,0)"
       id="rect5322"
       style="fill:#ffc7ff;fill-opacity:1;fill-rule:nonzero;stroke:#000000;stroke-width:6.5012989;stroke-linecap:square;stroke-linejoin:miter;stroke-miterlimit:4;stroke-opacity:1;stroke-dasharray:none" />
    <rect
       width="0.57087082"
       height="0.6640166"
       x="385.97702"
       y="11.20009"
       transform="matrix(0.84415377,0.53610112,0.00763822,0.99997083,0,0)"
       id="rect5324"
       style="fill:#ffc7ff;fill-opacity:1;fill-rule:nonzero;stroke:#000000;stroke-width:6.5012989;stroke-linecap:square;stroke-linejoin:miter;stroke-miterlimit:4;stroke-opacity:1;stroke-dasharray:none" />
    <path
       d="m 341.42858,236.64789 a 3.5714285,1.0714285 0 1 1 -7.14286,0 3.5714285,1.0714285 0 1 1 7.14286,0 z"
       transform="matrix(1.0743646,0,0,0.63828204,-25.145349,84.568748)"
       id="path5326"
       style="fill:#ffc7ff;fill-opacity:1;fill-rule:nonzero;stroke:#000000;stroke-width:8;stroke-linecap:square;stroke-linejoin:miter;stroke-miterlimit:4;stroke-opacity:1;stroke-dasharray:none" />
    <path
       d="m 170.06828,335.53707 -17.92542,-17.4606 -30,-12.14286 L 125,321.6479 92.142857,309.50504 l -4.285714,16.42857 33.571427,10.71429 -3.57143,15.71428 51.70606,19.02475"
       id="path5328"
       style="fill:#ffc7ff;fill-opacity:1;stroke:none" />
    <path
       d="m 585.55292,336.84198 c 24.57922,-11.78963 24.57922,-10.77948 24.57922,-10.77948 l -5.05077,-20.20305 46.46702,-19.1929 7.07107,26.26397 -24.24366,11.11168 9.09137,32.32488 -57.40917,29.43697 z"
       id="path5330"
       style="fill:#ffc7ff;fill-opacity:1;stroke:none" />
    <path
       d="m 123.99623,313.43559 18.43528,7.57615 c 0.37881,1.72568 0.75761,3.45135 1.13642,5.17703 0.37881,1.72568 0.75761,3.45135 1.13642,5.17703 l 11.36422,6.56599"
       id="path5332"
       style="fill:none;stroke:#000000;stroke-width:3;stroke-linecap:round;stroke-linejoin:miter;stroke-miterlimit:4;stroke-opacity:1;stroke-dasharray:none" />
    <path
       d="m 91.223715,317.47621 31.509815,11.11167"
       id="path5334"
       style="fill:none;stroke:#000000;stroke-width:2.97357488;stroke-linecap:round;stroke-linejoin:miter;stroke-miterlimit:4;stroke-opacity:1;stroke-dasharray:none" />
    <path
       d="m 120,348.25504 11.60714,4.28571"
       id="path5336"
       style="fill:none;stroke:#000000;stroke-width:3;stroke-linecap:round;stroke-linejoin:miter;stroke-miterlimit:4;stroke-opacity:1;stroke-dasharray:none" />
    <path
       d="m 121.78572,341.29076 11.60714,4.28571"
       id="path5338"
       style="fill:none;stroke:#000000;stroke-width:3;stroke-linecap:round;stroke-linejoin:miter;stroke-miterlimit:4;stroke-opacity:1;stroke-dasharray:none" />
    <path
       d="m 634.3758,324.0422 24.24366,-11.11168 -7.07107,-26.26397 -2.26267,-10.01865 29.28571,-10 c 0,0 25.71429,81.42857 25,84.28571 -0.71429,2.85714 -52.5,18.57143 -52.5,18.57143 z"
       id="path5340"
       style="fill:#c40000;fill-opacity:1;stroke:none" />
    <path
       d="m 649.28572,276.6479 -26.07143,8.92857 2.5,11.42857 25.8341,-10.33849 z"
       id="path3877"
       style="fill:#c40000;fill-opacity:1;stroke:none" />
    <path
       d="m 658.61946,312.93052 -24.24366,11.11168 9.09137,32.32488"
       id="path3879"
       style="fill:none;stroke:#000000;stroke-width:5;stroke-linecap:butt;stroke-linejoin:miter;stroke-miterlimit:4;stroke-opacity:1;stroke-dasharray:none" />
    <path
       d="m 634.3758,324.0422 -7.59008,14.74855 -9.64286,5"
       id="path3881"
       style="fill:none;stroke:#000000;stroke-width:5;stroke-linecap:butt;stroke-linejoin:miter;stroke-miterlimit:4;stroke-opacity:1;stroke-dasharray:none" />
    <path
       d="m 361.63461,777.09561 -36.36549,0.50508 -8.08122,24.24366 -33.33503,23.23351 c 0,0 -2.65165,2.69374 -3.40927,4.79822 -2.77792,5.42957 -2.0203,3.32509 -2.77792,5.42957 -0.75761,2.10449 -1.26269,3.57763 -2.0203,5.68211 -0.75762,2.10448 -0.88389,2.4412 -0.88389,9.34391 l 86.87312,-45.45686 z"
       id="path3883"
       style="fill:#c40000;fill-opacity:1;stroke:none" />
    <path
       d="m 400.0204,778.61084 36.36549,0.50508 8.08122,24.24366 33.33503,23.23351 c 0,0 2.65165,2.69374 3.40927,4.79822 2.77792,5.42957 2.0203,3.32509 2.77792,5.42957 0.75761,2.10449 1.26269,3.57763 2.0203,5.68211 0.75762,2.10448 0.88389,2.4412 0.88389,9.34391 L 400.0204,806.39004 z"
       id="path3885"
       style="fill:#c40000;fill-opacity:1;stroke:none" />
  </g>
</svg>
